<svg xmlns="http://www.w3.org/2000/svg" width="20" height="20" viewBox="0 0 20 20"><g fill="currentColor"><path fill-rule="evenodd" d="M10 16c4.658 0 8.5-2.161 8.5-5S14.658 6 10 6s-8.5 2.161-8.5 5s3.842 5 8.5 5m0-9c4.179 0 7.5 1.868 7.5 4s-3.321 4-7.5 4s-7.5-1.868-7.5-4S5.821 7 10 7" clip-rule="evenodd"/><path d="M9.5 3.5a.5.5 0 0 1 1 0v3a.5.5 0 0 1-1 0zm4.01.402a.5.5 0 0 1 .98.196l-.5 2.5a.5.5 0 0 1-.98-.196zm-7.02 0a.5.5 0 0 0-.98.196l.5 2.5a.5.5 0 0 0 .98-.196zM2.429 5.243a.5.5 0 0 0-.858.514l1.5 2.5a.5.5 0 0 0 .858-.514zm15.142 0a.5.5 0 1 1 .858.514l-1.5 2.5a.5.5 0 1 1-.858-.514zM13 10.5a3 3 0 1 1-6 0a3 3 0 0 1 6 0"/></g></svg>